Coordinates
version=1
nRows=8
nColumns=36
inDegrees=yes

Units are S.I. units (second, meters, Newtons, ...)
If the header above contains a line with 'inDegrees', this indicates whether rotational values are in degrees (yes) or radians (no).

endheader
time	pelvis_tilt	pelvis_list	pelvis_rotation	pelvis_tx	pelvis_ty	pelvis_tz	hip_flexion_r	hip_adduction_r	hip_rotation_r	knee_angle_r	knee_angle_r_beta	ankle_angle_r	subtalar_angle_r	mtp_angle_r	hip_flexion_l	hip_adduction_l	hip_rotation_l	knee_angle_l	knee_angle_l_beta	ankle_angle_l	subtalar_angle_l	mtp_angle_l	lumbar_extension	lumbar_bending	lumbar_rotation	arm_flex_r	arm_add_r	arm_rot_r	elbow_flex_r	pro_sup_r	arm_flex_l	arm_add_l	arm_rot_l	elbow_flex_l	pro_sup_l
      3.71666670	    -22.22975206	      0.94632682	      1.57945394	      0.35747698	      0.84501818	     -0.06392650	     50.42812591	     -9.73685570	     -5.21017875	     50.54374057	      0.88215469	     15.25712861	    -14.42192191	     -7.49999987	     50.77497811	     -7.02817007	     -4.63331824	     48.86314062	      0.85282269	     18.91304957	      5.55942642	     -7.49999987	    -12.79265024	     -0.64588457	      0.98382003	     66.30799923	    -12.37660252	     42.84578036	    127.55739207	    103.58648757	     66.32624091	    -14.68687241	     44.83654875	    127.18575660	     97.42718941
      3.72083330	    -21.90908676	      0.92498988	      1.63707720	      0.35885406	      0.84995799	     -0.06243900	     49.28467958	     -9.58970736	     -5.46650886	     49.32283908	      0.86084594	     14.78533056	    -14.66362852	     -7.49999987	     49.80519572	     -6.83171891	     -4.42790968	     47.78742607	      0.83404793	     18.40604468	      5.53281561	     -7.49999987	    -12.56527087	     -0.59882296	      1.02582829	     65.45688865	    -12.66540201	     43.10109875	    127.47305530	    102.10024555	     65.98203694	    -14.85811259	     45.96957037	    127.25507266	     96.20225423
      3.72500000	    -21.77395256	      0.94455003	      1.64326901	      0.36104243	      0.85226063	     -0.06420563	     48.47363841	     -9.57693841	     -5.61601049	     48.25167559	      0.84215061	     14.52202647	    -14.30388385	     -7.49999987	     48.99125670	     -6.62199848	     -4.32850229	     46.81553096	      0.81708516	     18.20151148	      5.56322053	     -7.49999987	    -12.08218200	     -0.52337299	      1.05665247	     64.73240794	    -13.00702253	     43.67245338	    127.61325656	     98.32822698	     65.50771760	    -15.17919612	     46.65935371	    127.46053139	     93.24638197
      3.72916670	    -21.56988657	      0.92613729	      1.63802479	      0.36248345	      0.85608296	     -0.06468022	     47.56905527	     -9.51154514	     -5.79952001	     47.15217618	      0.82296072	     14.23541273	    -13.90527288	     -7.49999987	     48.14964031	     -6.46293042	     -4.35674972	     45.80802627	      0.79950088	     17.92155764	      5.43283899	     -7.49999987	    -11.64268080	     -0.41410451	      1.03513139	     64.00038420	    -13.14097879	     44.06671812	    127.78878136	     96.56911724	     65.00424161	    -15.29354384	     47.32205174	    127.54579122	     91.44591544
      3.73333330	    -21.23067852	      0.98871558	      1.59237744	      0.36463329	      0.85917398	     -0.06459765	     46.50921448	     -9.48189053	     -5.93021247	     46.08473078	      0.80433029	     14.08922100	    -13.92254021	     -7.49999987	     47.07018091	     -6.26666684	     -4.33579599	     44.71696925	      0.78045834	     17.68149678	      5.38314654	     -7.49999987	    -11.37934136	     -0.49070613	      1.22346874	     63.12647103	    -13.54503956	     43.65382376	    128.00688421	    103.21627696	     64.81848445	    -15.14180119	     48.22245631	    127.11926017	     95.62913894
      3.73750000	    -20.97282615	      0.96065307	      1.54127975	      0.36494833	      0.86486572	     -0.06394713	     45.64369664	     -9.31496436	     -5.96447122	     45.02582047	      0.78584882	     13.42265007	    -14.08376958	     -7.49999987	     46.10183693	     -6.16735649	     -4.29387569	     43.55900689	      0.76024809	     17.06304222	      5.42422487	     -7.49999987	    -11.20456523	     -0.46305533	      1.16966372	     62.52994931	    -13.64410649	     44.11583799	    128.20886642	    102.59810800	     64.36475874	    -15.33732392	     48.97520730	    127.04116999	     94.81176453
      3.74166670	    -20.68146056	      0.93004513	      1.58560166	      0.36686499	      0.86986898	     -0.06442357	     44.47205395	     -9.20719731	     -6.12055574	     43.63082855	      0.76150161	     12.93685729	    -13.98836538	     -7.49999987	     45.01728736	     -6.02608442	     -4.19210912	     42.22118613	      0.73689871	     16.51667546	      5.30296690	     -7.49999987	    -11.07713838	     -0.40287172	      1.13339641	     61.63717539	    -13.93477179	     44.23729123	    128.36789131	    103.05147948	     63.64896090	    -15.50783932	     49.49518583	    126.78327863	     94.73129245
      3.74583330	    -20.20723838	      0.91975043	      1.71075486	      0.36985445	      0.87519003	     -0.06596072	     43.01496802	     -9.13016918	     -6.26524048	     42.19058823	      0.73636468	     12.49101889	    -13.87979515	     -7.49999987	     43.67771946	     -5.80838995	     -4.25575521	     40.85956208	      0.71313389	     15.89406839	      5.10800377	     -7.49999987	    -11.20262537	     -0.24971281	      0.95654930	     60.83068923	    -14.18566054	     44.63773113	    128.37052672	    100.96565500	     62.78507147	    -15.89181076	     49.89026461	    126.79441546	     92.94246060
